<svg width="100" height="100" viewBox="0 0 100 100" fill="none" xmlns="http://www.w3.org/2000/svg">
<rect x="0.5" y="0.5" width="99" height="99" rx="24.5" fill="#131635" fill-opacity="0.9" stroke="#2CC5B8"/>
<path d="M29.1213 58.7788L18.2225 49.091C18.2225 49.091 17.7219 47.0192 18.2225 45.8617C18.8482 44.4148 19.9296 43.8496 21.4517 43.4398C22.5173 43.1529 24.2773 43.4398 24.2773 43.4398L35.5798 53.1276C35.5798 53.1276 36.1871 55.4783 35.5798 56.7605C35.1026 57.7679 34.5489 58.2616 33.5615 58.7788C32.0254 59.5834 29.1213 58.7788 29.1213 58.7788Z" fill="#131635" fill-opacity="0.9" stroke="#3EF4E5" stroke-width="3"/>
<path d="M24.2776 43.4397C24.2776 43.4397 22.888 41.2916 23.0666 39.8068C23.2443 38.3303 23.796 37.3193 25.0849 36.5775C26.4512 35.7912 29.1215 36.5775 29.1215 36.5775L42.0386 47.88C42.0386 47.88 42.5556 50.1917 42.0386 51.5129C41.5899 52.6594 41.1283 53.3979 40.0203 53.9348C38.4342 54.7034 35.5801 53.1275 35.5801 53.1275" stroke="#3EF4E5" stroke-width="3"/>
<path d="M29.1213 36.5774C29.1213 36.5774 27.9873 34.1149 28.314 32.5408C28.5723 31.2964 28.8503 30.3878 29.9286 29.7152C31.1324 28.9643 33.5616 29.7152 33.5616 29.7152L47.6896 42.2286C47.6896 42.2286 48.2066 44.5403 47.6896 45.8615C47.241 47.0081 46.7943 47.7788 45.6713 48.2835C44.3693 48.8686 42.0384 47.8798 42.0384 47.8798" stroke="#3EF4E5" stroke-width="3"/>
<path d="M27.5067 57.5676L20.6445 65.2371" stroke="#3EF4E5" stroke-width="3"/>
<path d="M33.5612 29.7152C33.5612 29.7152 33.3542 28.2162 33.5612 27.2933C33.8394 26.0532 34.1184 25.1726 35.1759 24.4677C36.2333 23.7627 38.4051 24.064 38.4051 24.064L40.4234 25.6786C40.4234 25.6786 39.7217 26.8546 39.6161 27.6969C39.4969 28.6484 39.6036 29.255 40.0198 30.1189C40.704 31.5391 43.249 32.5408 43.249 32.5408L47.6893 32.1372L53.3405 36.9811C53.3405 36.9811 53.6955 38.7619 53.3405 39.8067C52.9444 40.9724 52.4193 41.6698 51.3222 42.2286C50.0581 42.8726 47.6893 42.2286 47.6893 42.2286" stroke="#3EF4E5" stroke-width="3"/>
<path d="M48.0923 32.5408L55.3581 24.4676C55.3581 24.4676 56.829 23.9423 57.7801 24.0639C59.0407 24.2252 59.9331 24.6002 60.6057 25.6786C61.3566 26.8823 60.6057 29.3115 60.6057 29.3115L57.7801 32.5408" stroke="#3EF4E5" stroke-width="3"/>
<path d="M40.4238 25.6787C41.0544 25.2058 42.0385 24.4677 42.0385 24.4677L52.9372 24.0641L54.5519 25.2751" stroke="#3EF4E5" stroke-width="3"/>
<path d="M60.606 29.3116L62.6243 27.697C62.6243 27.697 64.6229 26.9757 65.8535 27.2933C66.9542 27.5774 67.6809 27.9391 68.2755 28.9079C69.0175 30.1172 68.2755 32.5409 68.2755 32.5409L64.2389 36.9811" stroke="#3EF4E5" stroke-width="3"/>
<path d="M68.2759 32.5409C68.2759 32.5409 70.0439 32.2259 71.1015 32.5409C72.1909 32.8654 72.995 33.149 73.5234 34.1555C74.0364 35.1325 73.5234 36.9811 73.5234 36.9811L69.0832 42.2287" stroke="#3EF4E5" stroke-width="3"/>
<path d="M73.1199 37.3847C73.1199 37.3847 74.2073 37.2172 75.1382 37.3848C76.3197 37.5975 77.1805 38.2641 77.5601 39.4031C77.9638 40.6141 77.9638 41.8249 77.9638 41.8249L59.3955 65.2372" stroke="#3EF4E5" stroke-width="3"/>
<path d="M59.3958 65.2373C59.3958 65.2373 58.2328 66.3159 57.3775 66.8519C55.8141 67.8318 54.764 68.2068 52.9372 68.4666C51.6887 68.6441 49.708 68.4666 49.708 68.4666L47.286 68.0629L40.4238 76.1361" stroke="#3EF4E5" stroke-width="3"/>
<path d="M59.3955 65.2373L68.6797 74.5215" stroke="#3EF4E5" stroke-width="3"/>
<path d="M72.7158 49.0909L82 58.3751" stroke="#3EF4E5" stroke-width="3"/>
</svg>
