<svg width="100" height="100" viewBox="0 0 100 100" fill="none" xmlns="http://www.w3.org/2000/svg">
<rect x="0.5" y="0.5" width="99" height="99" rx="24.5" fill="#131635" fill-opacity="0.9" stroke="#2CC5B8"/>
<path d="M63.3783 69.3514H36.6216V66.2045C36.6216 66.2045 37.1714 63.1127 38.0601 61.3412C39.4096 58.6512 40.8776 57.3544 43.5266 55.9057C45.7476 54.691 49.5684 54.1892 49.5684 54.1892C49.5684 54.1892 53.85 54.3863 56.1857 55.6196C58.9231 57.0651 60.4407 58.3576 61.9398 61.0551C62.9195 62.8179 63.3783 66.2045 63.3783 66.2045V69.3514Z" stroke="#3EF4E5" stroke-width="3"/>
<path d="M65.6247 62.2162L83 62.2162V59.0694C83 59.0694 82.5609 55.6828 81.6234 53.9199C80.1887 51.2225 78.7364 49.93 76.1167 48.4845C73.8815 47.2511 69.784 47.0541 69.784 47.0541C69.784 47.0541 66.1276 47.5558 64.002 48.7705C61.467 50.2193 60.2104 50.9975 58.9189 53.6875" stroke="#3EF4E5" stroke-width="3"/>
<path d="M35.0191 62.2162L17.0002 62.2162V59.0694C17.0002 59.0694 17.4555 55.6828 18.4278 53.9199C19.9156 51.2225 21.4217 49.93 24.1385 48.4845C26.4564 47.2511 30.7057 47.0541 30.7057 47.0541C30.7057 47.0541 34.4975 47.5558 36.7018 48.7705C39.3308 50.2193 40.6339 50.9975 41.9731 53.6875" stroke="#3EF4E5" stroke-width="3"/>
<circle cx="50.0001" cy="45.2702" r="4.74324" stroke="#3EF4E5" stroke-width="3"/>
<path d="M69.6216 32.5C72.1454 32.5 74.3647 34.7244 74.3647 37.6895C74.3646 40.6544 72.1453 42.8779 69.6216 42.8779C67.0979 42.8779 64.8785 40.6544 64.8784 37.6895C64.8784 34.7244 67.0978 32.5 69.6216 32.5Z" stroke="#3EF4E5" stroke-width="3"/>
<path d="M30.3784 32.5C27.8546 32.5 25.6353 34.7244 25.6353 37.6895C25.6354 40.6544 27.8547 42.8779 30.3784 42.8779C32.9021 42.8779 35.1215 40.6544 35.1216 37.6895C35.1216 34.7244 32.9022 32.5 30.3784 32.5Z" stroke="#3EF4E5" stroke-width="3"/>
</svg>
