<svg width="100" height="100" viewBox="0 0 100 100" fill="none" xmlns="http://www.w3.org/2000/svg">
<rect x="0.5" y="0.5" width="99" height="99" rx="24.5" fill="#131635" fill-opacity="0.9" stroke="#2CC5B8"/>
<path d="M57.2666 30.0675C54.1547 28.9948 49.9477 25 49.9477 25C49.9477 25 44.6041 28.9775 41.049 30.0675C37.8281 31.0551 32.5772 31.7331 32.5772 31.7331H26.0418V38.3954C26.0418 38.3954 25.7893 44.4062 26.5259 48.151C27.4291 52.7431 28.8505 55.341 30.8828 59.3342C33.1276 63.7448 39.5967 68.6138 39.5967 68.6138L45.406 71.945L50.8015 75L55.5722 71.945L60.6553 68.6138C60.6553 68.6138 66.2132 63.5663 68.401 59.3342C70.4783 55.3158 71.3943 52.6831 72.2738 48.151C73.002 44.3988 73 38.3954 73 38.3954V31.7331H66.2225C66.2225 31.7331 60.6256 31.2255 57.2666 30.0675Z" fill="#131635" fill-opacity="0.9" stroke="#3EF4E5" stroke-opacity="0.9" stroke-width="4"/>
<path d="M39 49.8571L46.1579 58L63 43" stroke="#3EF4E5" stroke-width="4"/>
</svg>
