<svg width="135" height="180" viewBox="0 0 135 180" fill="none" xmlns="http://www.w3.org/2000/svg">
<path d="M47 46.5H83V65.5H47V140.25C47 146.417 48.3333 151.417 51 155.25C53.8333 158.917 57.9167 160.75 63.25 160.75C66.9167 160.75 70.1667 160.417 73 159.75C76 158.917 79.3333 157.667 83 156V175.5C79.1667 177.333 75.5 178.5 72 179C68.5 179.667 64.25 180 59.25 180C48.5833 180 40.1667 176.583 34 169.75C28 162.917 25 153.833 25 142.5V65.5H9.31323e-08V46.5H25V11.5L47 -1.07288e-06V46.5Z" fill="white"/>
<path d="M121.404 178.136C117.901 178.136 114.894 176.882 112.385 174.372C109.875 171.863 108.62 168.856 108.62 165.352C108.62 161.848 109.875 158.842 112.385 156.332C114.894 153.823 117.901 152.568 121.404 152.568C124.908 152.568 127.915 153.823 130.424 156.332C132.934 158.842 134.189 161.848 134.189 165.352C134.189 167.672 133.597 169.803 132.413 171.744C131.277 173.686 129.738 175.248 127.797 176.432C125.903 177.568 123.772 178.136 121.404 178.136Z" fill="#27B49C"/>
</svg>
